<svg width="789" height="675" viewBox="0 0 789 675" fill="none" xmlns="http://www.w3.org/2000/svg">
<path d="M143.172 223.272C97.9642 174.332 68.783 129.161 47.342 60.7324C47.0472 59.7918 48.2247 59.0936 48.9061 59.8058C88.9563 101.666 126.546 131.064 187.872 156.871C188.921 157.313 190.135 156.693 190.421 155.592C215.768 58.1225 262.261 21.1454 305.191 55.0638C305.902 55.6261 306.975 54.8967 306.787 54.0095C292.181 -14.8971 391.233 13.42 408.263 76.6392C408.459 77.3692 409.408 77.5953 409.912 77.0323C468.871 11.2668 565.217 16.0111 591.076 114.989C591.363 116.09 592.588 116.719 593.648 116.307C636.536 99.6297 651.956 119.706 644.027 211.056C643.944 212.009 644.609 212.909 645.546 213.104C716.585 227.9 741.207 300.586 717.132 372.812C688.017 431.599 680.431 427.535 670.912 439.015C670.226 439.843 671.243 440.709 672.065 440.017C728.607 392.375 716.553 441.172 648.496 500.609C647.771 501.242 648.341 502.479 649.289 502.309C681.959 496.463 679.469 510.709 641.731 568.47C641.074 569.476 641.116 570.831 641.864 571.771C677.932 617.143 715.458 637.463 774.42 656.416C775.446 656.746 775.178 658.278 774.101 658.258C682.628 656.556 622.976 650.647 539.553 635.86C534.852 635.027 529.989 635.491 525.521 637.175C446.349 667.023 407.355 671.907 419.601 630.957C419.849 630.127 418.932 629.372 418.186 629.813C355.018 667.193 313.504 669.021 326.902 626.657C327.137 625.912 326.413 625.169 325.676 625.428C269.896 645.029 241.053 644.534 227.687 614.865C227.086 613.53 225.778 612.609 224.317 612.522C173.11 609.489 148.037 578.474 173.914 553.781C175.342 552.418 173.996 549.656 172.041 549.926C-13.2713 575.502 -18.8332 419.105 69.4943 360.68C74.39 360.68 32.5894 327.993 77.3092 326.19C78.3987 326.146 78.9292 323.86 78.001 323.288C50.6277 306.415 58.1807 241.974 142.064 226.443C143.529 226.172 144.183 224.367 143.172 223.272Z" fill="black"/>
<path fill-rule="evenodd" clip-rule="evenodd" d="M349.062 2.21272C372.799 8.24356 399.405 26.6831 413.889 53.437C443.802 27.3992 480.51 15.094 514.988 20.3993C552.873 26.2286 585.049 52.8283 600.893 99.2027C608.258 97.2944 615.547 96.4414 622.501 97.3533C634.442 98.9193 643.838 105.475 649.992 116.214C655.661 126.108 658.394 139.155 659.448 154.405C660.358 167.557 660.075 183.369 658.739 202.016C693.337 212.288 717.372 235.824 729.893 266.07C743.451 298.82 743.247 338.593 730.364 377.241L730.058 378.16L729.628 379.027C723.428 391.547 718.102 401.442 713.425 409.381C715.959 410.907 718.127 413.096 719.649 415.894C721.738 419.734 722.02 423.623 721.873 426.417C721.722 429.296 721.062 432.055 720.268 434.495C717.236 443.804 709.811 455.591 699.696 468.15C693.674 475.627 686.407 483.733 677.946 492.211C680.208 493.964 682.205 496.253 683.666 499.163C686.132 504.072 686.269 509.165 685.756 513.276C684.78 521.086 680.807 530.079 675.712 539.568C671.252 547.873 665.263 557.735 657.852 569.266C690.076 607.454 724.145 625.57 778.656 643.093L774.372 656.419L778.656 643.093C786.937 645.755 789.849 653.796 788.792 659.87C787.742 665.906 782.373 672.416 773.793 672.256C681.609 670.541 621.226 664.564 537.063 649.646C534.864 649.257 532.549 649.47 530.412 650.276C510.435 657.807 492.703 663.876 477.514 668.054C462.524 672.177 449.12 674.717 438.104 674.616C427.485 674.518 415.164 671.854 408.099 661.082C406.475 658.605 405.326 655.986 404.564 653.278C396.017 657.622 387.899 661.259 380.307 664.138C367.004 669.184 354.439 672.247 343.645 672.139C332.85 672.031 320.941 668.538 314.452 657.266C312.258 653.455 311.044 649.334 310.573 645.056C290.986 650.85 273.949 653.829 259.514 652.57C249.608 651.707 240.474 648.821 232.588 643.166C226.322 638.672 221.421 632.842 217.603 626.033C192.471 623.507 171.382 614.477 159.449 600.286C152.825 592.409 148.853 582.615 149.667 571.892C149.815 569.95 150.114 568.042 150.556 566.173C113.306 568.54 82.9885 563.237 59.3632 552.008C30.7058 538.386 12.6895 516.379 4.74695 490.985C-9.60808 445.09 9.4611 390.918 50.2433 357.48C48.7206 355.323 47.191 352.924 45.931 350.433C43.3631 345.357 39.0924 334.215 46.5976 324.035C48.8035 321.044 51.5928 318.832 54.5899 317.195C47.8468 302.946 48.3056 284.823 55.4716 268.684C64.9603 247.315 85.9086 228.183 119.299 217.662C80.4219 172.857 53.8595 128.499 33.9382 64.9203C29.2546 49.9725 47.9757 38.6359 58.9741 50.1314C95.1051 87.8956 128.718 114.852 180.615 138.445C193.341 95.5643 210.862 63.5036 232.084 45.4085C244.045 35.2094 257.674 29.0623 272.38 28.7628C279.108 28.6258 285.694 29.7204 292.074 31.9075C293.701 22.5997 297.932 14.5951 305.252 8.69185C317.706 -1.35277 334.604 -1.46043 349.062 2.21272ZM293.047 56.9144C293.046 56.9088 293.044 56.9031 293.043 56.8975C293.044 56.9031 293.046 56.9088 293.047 56.9144ZM425.268 641.863C425.262 641.866 425.257 641.869 425.251 641.873C425.257 641.869 425.262 641.866 425.268 641.863ZM656.283 515.399C655.007 515.55 653.493 515.772 651.708 516.091C643.924 517.484 637.892 512.761 635.523 507.66C633.175 502.605 633.44 495.135 639.241 490.069L648.449 500.612L639.241 490.068C654.243 476.967 666.303 464.512 675.317 453.727C670.827 454.964 665.752 454.148 661.744 450.698C658.949 448.292 656.932 444.701 656.669 440.496C656.401 436.209 658.015 432.585 660.089 430.083L670.865 439.018L671.891 439.869M670.865 439.018L660.089 430.083C663.137 426.407 666.105 423.864 668.428 421.873C668.584 421.74 668.736 421.609 668.886 421.48C671.22 419.475 673.357 417.597 676.044 414.493C681.557 408.127 689.994 395.876 704.104 367.482C714.988 334.222 714.426 301.899 704.026 276.779C693.712 251.866 673.48 233.233 642.644 226.811C634.723 225.161 629.342 217.819 630.034 209.848C631.987 187.346 632.449 169.773 631.519 156.337C630.573 142.651 628.257 134.593 625.701 130.134C623.63 126.52 621.625 125.474 618.861 125.112C614.993 124.604 608.633 125.484 598.674 129.356L593.601 116.31L598.674 129.356C589.766 132.82 579.876 127.678 577.485 118.53L577.485 118.53C565.723 73.5062 539.005 52.4201 510.731 48.0696C481.619 43.59 447.274 56.2779 420.288 86.3789C412.365 95.2173 397.785 91.7346 394.7 80.2826C387.706 54.3202 363.146 34.6764 342.168 29.3466C331.56 26.6514 325.369 28.4333 322.827 30.4836C321.134 31.8488 317.333 36.4777 320.434 51.1093L320.434 51.1096C321.926 58.1482 318.245 63.9222 314.057 66.7211C309.789 69.5735 302.557 70.8621 296.466 66.0499L305.144 55.0664L296.466 66.0499C287.693 59.1185 279.817 56.6131 272.95 56.753C266.072 56.893 258.445 59.7224 250.248 66.7115C233.345 81.1242 216.335 111.385 203.922 159.118C201.549 168.246 191.523 173.617 182.396 169.776L187.825 156.874L182.396 169.776C140.442 152.121 109.118 132.736 80.8122 109.191C99.0332 148.327 122.19 179.981 153.408 213.777L143.126 223.275L153.408 213.777C162.407 223.518 156.12 238.071 144.566 240.21C105.956 247.358 87.6887 265.114 81.0584 280.046C73.9781 295.991 79.4104 307.745 85.2998 311.375C89.7968 314.147 91.5001 318.366 92.0742 321.026C92.657 323.726 92.4483 326.206 91.9903 328.15C91.5353 330.081 90.6022 332.465 88.7775 334.686C86.9414 336.922 83.2974 339.958 77.8271 340.179C75.7201 340.264 74.0006 340.425 72.6127 340.619C73.8904 342.495 75.51 344.522 77.2773 346.681C77.3686 346.792 77.4657 346.911 77.5676 347.035C78.5776 348.265 80.064 350.076 81.0686 351.611C81.3969 352.113 81.8653 352.868 82.3093 353.788C82.667 354.529 83.4982 356.35 83.7657 358.789C84.0537 361.415 83.7887 366.627 79.3618 370.788C78.2586 371.826 77.1098 372.588 75.994 373.147C37.0791 399.594 20.1938 446.588 31.4663 482.628C37.0374 500.44 49.6372 516.387 71.3815 526.723C93.3997 537.188 125.545 542.209 170.081 536.062C178.758 534.864 184.573 540.566 186.788 545.122C189.005 549.681 189.908 557.826 183.531 563.911C178.93 568.301 177.749 571.819 177.583 574.013C177.421 576.146 178.065 578.925 180.876 582.268C186.898 589.429 201.581 597.159 225.098 598.552C231.881 598.953 237.715 603.15 240.403 609.118L227.641 614.867L240.403 609.118C242.963 614.8 245.865 618.236 248.904 620.416C251.929 622.586 255.998 624.162 261.946 624.68C274.574 625.782 293.26 621.968 320.989 612.225C333.448 607.847 343.647 619.985 340.201 630.88L326.855 626.66L340.201 630.881C337.467 639.528 338.492 642.757 338.686 643.234C338.739 643.267 338.825 643.315 338.955 643.374C339.59 643.661 341.098 644.116 343.925 644.145C349.73 644.203 358.551 642.448 370.379 637.962C382.005 633.552 395.71 626.823 411.011 617.769L411.011 617.769C423.597 610.321 436.569 622.919 432.965 634.97L419.554 630.96L432.965 634.97C430.901 641.872 431.313 644.778 431.501 645.573C432.138 645.908 433.987 646.581 438.361 646.621C445.459 646.686 455.884 644.968 470.089 641.06C484.096 637.208 500.927 631.473 520.536 624.08C527.334 621.517 534.746 620.803 541.949 622.08C600.619 632.479 647.325 638.44 701.933 641.629C675.333 626.906 652.778 608.057 630.859 580.486C626.231 574.664 626.122 566.7 629.965 560.817L641.684 568.473L629.965 560.817C639.341 546.466 646.308 535.148 651.047 526.323C653.541 521.679 655.207 518.098 656.283 515.399M431.218 645.388C431.22 645.386 431.246 645.404 431.289 645.447C431.238 645.411 431.216 645.39 431.218 645.388ZM70.2825 336.27C70.2921 336.276 70.3258 336.372 70.355 336.543C70.2876 336.351 70.273 336.265 70.2825 336.27ZM68.0224 341.756C68.0078 341.765 68 341.769 67.9997 341.769C67.9994 341.769 68.0068 341.764 68.0224 341.756Z" fill="#E9007F"/>
<path fill-rule="evenodd" clip-rule="evenodd" d="M490.566 334.628C495.681 328.831 504.527 328.278 510.323 333.393C530.248 350.974 555.598 354.293 576.125 337.305C582.081 332.376 590.905 333.208 595.834 339.164C600.763 345.12 599.931 353.944 593.975 358.873C560.377 386.678 519.469 378.799 491.801 354.385C486.004 349.271 485.451 340.425 490.566 334.628Z" fill="white"/>
<path fill-rule="evenodd" clip-rule="evenodd" d="M311.676 348.983C317.629 353.915 318.458 362.739 313.526 368.693C296.135 389.689 278.891 406.193 260.054 414.699C240.172 423.676 219.777 423.2 198.292 413.003C191.308 409.689 188.333 401.34 191.648 394.356C194.963 387.372 203.312 384.397 210.296 387.711C224.984 394.682 236.759 394.5 248.532 389.184C261.35 383.396 275.246 371.02 291.966 350.834C296.898 344.88 305.722 344.052 311.676 348.983Z" fill="white"/>
<path fill-rule="evenodd" clip-rule="evenodd" d="M521.896 259.009C515.901 253.179 506.779 249.112 493.38 250.306C479.988 251.498 471.346 257.172 466.045 264.247C460.546 271.586 458.008 281.318 458.777 291.184C459.547 301.061 463.558 310.152 469.956 316.334C476.095 322.266 485.142 326.243 497.945 325.071C522.267 322.845 533.744 303.718 532.564 283.943C531.976 274.076 528.152 265.094 521.896 259.009ZM559.579 282.332C561.433 313.417 542.347 348.182 500.412 352.021C480.087 353.882 463.18 347.419 451.15 335.795C439.38 324.421 433.009 308.841 431.796 293.288C430.582 277.724 434.46 261.269 444.388 248.019C454.513 234.505 470.309 225.19 490.979 223.349C511.642 221.51 528.708 227.883 540.764 239.609C552.559 251.08 558.651 266.769 559.579 282.332Z" fill="white"/>
<path fill-rule="evenodd" clip-rule="evenodd" d="M296.955 290.738C290.96 284.908 281.838 280.841 268.439 282.035C255.047 283.227 246.405 288.901 241.104 295.976C235.605 303.315 233.066 313.047 233.836 322.913C234.606 332.79 238.617 341.881 245.015 348.063C251.153 353.995 260.201 357.972 273.004 356.8C297.326 354.574 308.802 335.447 307.623 315.672C307.035 305.805 303.211 296.823 296.955 290.738ZM334.638 314.061C336.492 345.146 317.406 379.911 275.471 383.75C255.145 385.611 238.238 379.148 226.209 367.524C214.438 356.15 208.068 340.57 206.855 325.017C205.641 309.453 209.519 292.998 219.446 279.748C229.572 266.234 245.368 256.919 266.038 255.078C286.701 253.239 303.767 259.612 315.823 271.338C327.618 282.809 333.71 298.498 334.638 314.061Z" fill="white"/>
<path fill-rule="evenodd" clip-rule="evenodd" d="M519.357 352.451L505.281 375.24C493.193 394.811 477.732 403.385 460.09 407.594C451.696 409.596 442.798 410.621 433.95 411.515C432.296 411.682 430.64 411.844 428.979 412.008C421.537 412.739 413.971 413.483 405.884 414.677C394.989 416.287 385.487 418.315 376.599 420.212C375.855 420.37 375.116 420.528 374.38 420.685C365.078 422.665 355.945 424.553 347.249 425.155C338.316 425.773 329.358 425.085 320.242 421.674C311.163 418.277 302.757 412.49 294.408 404.104L276.596 386.215L519.357 352.451Z" fill="white"/>
<path fill-rule="evenodd" clip-rule="evenodd" d="M508.426 327.367C515.485 328.861 519.996 335.795 518.502 342.854C516.021 354.579 511.744 365.446 506.031 375.338L557.517 422.943C562.815 427.841 563.139 436.107 558.24 441.405C553.342 446.703 545.076 447.026 539.778 442.128L490.391 396.464C483.319 404.091 475.289 410.812 466.583 416.574L473.882 440.483L495.802 432.803C502.611 430.418 510.066 434.004 512.451 440.814C514.837 447.623 511.251 455.078 504.441 457.463L481.518 465.494L492.087 500.11C494.193 507.011 490.307 514.313 483.406 516.42C476.505 518.527 469.203 514.641 467.096 507.74L443.102 429.151C429.069 435.106 413.988 439 398.6 440.631L398.878 458.002L422.937 455.914C430.125 455.29 436.458 460.612 437.082 467.801C437.706 474.989 432.384 481.322 425.195 481.946L399.296 484.193L399.801 515.848C399.917 523.062 394.162 529.004 386.947 529.12C379.732 529.235 373.791 523.48 373.675 516.265L372.477 441.198C364.94 440.722 357.41 439.683 349.972 438.049C341.294 461.937 330.766 478.635 319.23 489.201C305.605 501.681 289.973 505.922 275.879 501.524C248.085 492.85 238.723 455.997 262.486 430.999C267.458 425.77 275.727 425.56 280.957 430.532C286.186 435.503 286.396 443.773 281.424 449.002C269.26 461.799 276.695 474.406 283.663 476.581C286.95 477.606 293.19 477.619 301.582 469.933C308.947 463.186 317.402 450.854 325.068 430.07C302.037 420.075 282.756 403.518 266.341 379.773C262.238 373.838 263.723 365.7 269.659 361.597C275.594 357.494 283.732 358.979 287.835 364.915C304.292 388.721 323.022 402.728 345.419 409.814C358.185 413.853 371.627 415.643 385.045 415.341C406.182 414.866 427.022 409.207 444.754 399.295C458.321 391.711 469.922 381.722 478.507 369.83C485.41 360.267 490.404 349.422 492.939 337.443C494.433 330.384 501.367 325.873 508.426 327.367Z" fill="#E9007F"/>
</svg>
