<svg viewBox="0 0 846 724" fill="none"
    xmlns="http://www.w3.org/2000/svg">
    <path d="M153.453 239.755C105.008 187.311 73.7379 138.908 50.762 65.58C50.4462 64.5721 51.7079 63.8239 52.4381 64.5872C95.3553 109.444 135.636 140.946 201.352 168.601C202.476 169.074 203.777 168.41 204.084 167.23C231.245 62.7833 281.066 23.1592 327.069 59.5057C327.832 60.1082 328.982 59.3265 328.78 58.3758C313.128 -15.4635 419.271 14.8808 437.52 82.6255C437.731 83.4078 438.747 83.6501 439.288 83.0468C502.467 12.5734 605.711 17.6574 633.42 123.721C633.728 124.9 635.041 125.575 636.177 125.133C682.135 107.262 698.658 128.776 690.161 226.664C690.073 227.686 690.785 228.65 691.789 228.859C767.914 244.714 794.299 322.603 768.5 400C737.301 462.995 729.172 458.641 718.971 470.942C718.236 471.829 719.326 472.758 720.207 472.015C780.796 420.963 767.88 473.253 694.951 536.945C694.174 537.624 694.785 538.949 695.801 538.767C730.81 532.502 728.141 547.768 687.702 609.664C686.997 610.742 687.043 612.195 687.844 613.202C726.494 661.821 766.706 683.596 829.889 703.906C830.988 704.259 830.701 705.901 829.547 705.879C731.526 704.055 667.603 697.724 578.209 681.879C573.172 680.986 567.96 681.483 563.173 683.288C478.333 715.272 436.547 720.506 449.67 676.624C449.936 675.735 448.953 674.926 448.154 675.398C380.463 715.455 335.978 717.413 350.335 672.016C350.587 671.218 349.811 670.422 349.021 670.7C289.248 691.703 258.341 691.173 244.018 659.38C243.374 657.95 241.971 656.963 240.406 656.87C185.533 653.62 158.665 620.384 186.395 593.923C187.925 592.464 186.483 589.503 184.388 589.792C-14.1904 617.2 -20.1504 449.607 74.5002 387C79.7463 387 34.9533 351.973 82.8745 350.04C84.042 349.993 84.6105 347.544 83.6159 346.931C54.283 328.85 62.3766 259.796 152.265 243.153C153.835 242.863 154.536 240.928 153.453 239.755Z" stroke="#E9007F" stroke-width="30" />
    <path d="M537 369C562.5 391.5 598 397.5 627 373.5" stroke="white" stroke-width="30" stroke-linecap="round" />
    <path d="M219 429.5C257.763 447.896 287.946 430.13 324.5 386" stroke="white" stroke-width="30" stroke-linecap="round" />
    <path d="M527.438 254.279C600.437 247.779 605.938 356.779 534.938 363.279C463.938 369.779 454.438 260.779 527.438 254.279Z" stroke="white" stroke-width="29" />
    <path d="M286.438 288.279C359.437 281.779 364.938 390.779 293.938 397.279C222.938 403.779 213.438 294.779 286.438 288.279Z" stroke="white" stroke-width="29" />
    <path d="M530 395.5L325.084 424C356.812 455.866 380.386 439.273 433 431.5C477 425 508.472 430.353 530 395.5Z" stroke="white" stroke-width="27" stroke-linecap="round" />
    <path d="M297 399.5C316.155 427.209 338.65 444.347 366 453M542 365C538.858 379.845 532.668 393.255 524.19 405M366 453C327.5 578 253 512.5 291.5 472M366 453C381.235 457.82 397.178 459.927 413 459.571M413 459.571L413.75 506.536M413 459.571C437.879 459.012 462.456 452.364 483.5 440.6M414.5 553.5L413.75 506.536M413.75 506.536L454.5 503M483.5 440.6L498.75 490.55M483.5 440.6C499.62 431.589 513.667 419.577 524.19 405M514 540.5L498.75 490.55M498.75 490.55L536 477.5M524.19 405L588 464" stroke="#E9007F" stroke-width="28" stroke-linecap="round" />
</svg>