<svg width="119" height="101" viewBox="0 0 119 101" fill="none" xmlns="http://www.w3.org/2000/svg">
<path d="M21.4347 33.4273C14.6664 26.1002 10.2975 19.3375 7.0875 9.09273C7.04337 8.95191 7.21965 8.84739 7.32167 8.95402C13.3177 15.2211 18.9455 19.6224 28.1268 23.4861C28.2839 23.5522 28.4656 23.4595 28.5085 23.2946C32.3033 8.702 39.2639 3.166 45.6911 8.24407C45.7976 8.32825 45.9583 8.21904 45.9301 8.08622C43.7434 -2.23008 58.5729 2.0094 61.1224 11.4742C61.1519 11.5835 61.2939 11.6174 61.3694 11.5331C70.1963 1.68703 84.6208 2.39733 88.4921 17.2157C88.5352 17.3805 88.7186 17.4748 88.8773 17.4131C95.2982 14.9162 97.6067 17.922 96.4196 31.5983C96.4072 31.741 96.5068 31.8757 96.647 31.905C107.283 34.1201 110.969 45.0022 107.365 55.8155C103.006 64.6167 101.87 64.0083 100.445 65.727C100.342 65.8509 100.494 65.9807 100.617 65.877C109.082 58.7443 107.278 66.0499 97.0888 74.9485C96.9802 75.0433 97.0656 75.2284 97.2075 75.203C102.099 74.3277 101.726 76.4606 96.0759 85.1083C95.9776 85.2589 95.9839 85.4618 96.0958 85.6025C101.496 92.3953 107.114 95.4375 115.941 98.275C116.095 98.3244 116.055 98.5537 115.894 98.5507C102.199 98.2959 93.268 97.4113 80.7785 95.1975C80.0747 95.0728 79.3466 95.1422 78.6777 95.3944C66.8245 99.863 60.9865 100.594 62.8199 94.4634C62.8571 94.3391 62.7198 94.2261 62.6081 94.2921C53.1509 99.8885 46.9357 100.162 48.9415 93.8197C48.9768 93.7081 48.8684 93.5969 48.758 93.6357C40.407 96.5702 36.0888 96.4961 34.0877 92.0542C33.9977 91.8544 33.8018 91.7164 33.5831 91.7035C25.9167 91.2494 22.1629 86.6059 26.0371 82.909C26.2509 82.7051 26.0494 82.2915 25.7568 82.3319C-1.98716 86.1611 -2.81986 62.7463 10.404 53.9992C11.137 53.9992 4.87882 49.1054 11.574 48.8355C11.7371 48.8289 11.8166 48.4867 11.6776 48.4011C7.57943 45.8749 8.71021 36.2272 21.2687 33.902C21.488 33.8614 21.586 33.5911 21.4347 33.4273Z" fill="black"/>
<path fill-rule="evenodd" clip-rule="evenodd" d="M52.2595 0.331276C55.8134 1.23418 59.7966 3.99483 61.9651 8.00027C66.4435 4.10205 71.9392 2.25979 77.1011 3.05406C82.7729 3.9268 87.5901 7.90914 89.9622 14.8521C91.0649 14.5664 92.1562 14.4386 93.1973 14.5752C94.9851 14.8096 96.3917 15.7911 97.313 17.399C98.1618 18.8802 98.5709 20.8335 98.7288 23.1166C98.865 25.0856 98.8227 27.4529 98.6227 30.2447C103.802 31.7826 107.401 35.3063 109.275 39.8345C111.305 44.7376 111.275 50.6922 109.346 56.4784L109.3 56.6159L109.236 56.7458C108.307 58.6202 107.51 60.1015 106.81 61.2902C107.189 61.5186 107.514 61.8463 107.742 62.2652C108.054 62.8401 108.097 63.4224 108.075 63.8407C108.052 64.2717 107.953 64.6848 107.834 65.0501C107.381 66.4438 106.269 68.2085 104.754 70.0887C103.853 71.2081 102.765 72.4217 101.498 73.6909C101.837 73.9535 102.136 74.2961 102.355 74.7318C102.724 75.4668 102.744 76.2293 102.667 76.8447C102.521 78.014 101.927 79.3604 101.164 80.7809C100.496 82.0244 99.5994 83.5009 98.4898 85.2272C103.314 90.9445 108.415 93.6568 116.576 96.2801L115.935 98.2753L116.576 96.2801C117.816 96.6787 118.252 97.8825 118.093 98.792C117.936 99.6956 117.132 100.67 115.848 100.646C102.047 100.39 93.0064 99.4947 80.406 97.2613C80.0768 97.203 79.7303 97.235 79.4103 97.3556C76.4194 98.4831 73.7646 99.3917 71.4907 100.017C69.2464 100.634 67.2397 101.015 65.5904 101C64.0007 100.985 62.156 100.586 61.0983 98.9733C60.8551 98.6026 60.683 98.2104 60.569 97.8051C59.2895 98.4554 58.074 98.9998 56.9374 99.4309C54.9458 100.186 53.0646 100.645 51.4486 100.629C49.8324 100.613 48.0495 100.09 47.0779 98.4021C46.7495 97.8315 46.5678 97.2145 46.4973 96.5741C43.5648 97.4415 41.014 97.8875 38.853 97.6991C37.3699 97.5698 36.0023 97.1378 34.8218 96.2911C33.8836 95.6183 33.1499 94.7455 32.5783 93.7261C28.8156 93.3478 25.6583 91.996 23.8717 89.8713C22.8801 88.692 22.2854 87.2257 22.4073 85.6204C22.4294 85.3297 22.4743 85.044 22.5404 84.7642C16.9635 85.1186 12.4246 84.3246 8.88752 82.6434C4.59709 80.6041 1.89979 77.3092 0.710686 73.5075C-1.43847 66.6363 1.41646 58.5261 7.52214 53.5198C7.29417 53.197 7.06516 52.8377 6.87652 52.4648C6.49207 51.7049 5.85269 50.0367 6.97633 48.5127C7.30658 48.0648 7.72418 47.7337 8.17288 47.4886C7.16335 45.3554 7.23204 42.642 8.30489 40.2259C9.72548 37.0265 12.8617 34.1622 17.8607 32.5872C12.0403 25.8792 8.06354 19.2382 5.08103 9.71949C4.37982 7.4816 7.18265 5.78434 8.82927 7.50539C14.2386 13.1592 19.2709 17.1949 27.0407 20.7272C28.9459 14.3073 31.5691 9.50739 34.7462 6.7983C36.537 5.27134 38.5774 4.35105 40.7791 4.30621C41.7865 4.28569 42.7725 4.44957 43.7277 4.77701C43.9712 3.38349 44.6047 2.1851 45.7005 1.30129C47.5651 -0.202529 50.095 -0.218647 52.2595 0.331276ZM43.8733 8.5209C43.8731 8.52006 43.8729 8.51921 43.8727 8.51836C43.8729 8.51921 43.8731 8.52006 43.8733 8.5209ZM63.6687 96.096C63.6678 96.0965 63.667 96.097 63.6662 96.0975C63.667 96.097 63.6678 96.0965 63.6687 96.096ZM98.255 77.1626C98.064 77.1852 97.8372 77.2183 97.57 77.2662C96.4047 77.4747 95.5016 76.7677 95.1468 76.0039C94.7953 75.2471 94.835 74.1288 95.7035 73.3702L97.082 74.9487L95.7035 73.3702C97.9495 71.4087 99.755 69.544 101.105 67.9293C100.432 68.1146 99.6726 67.9924 99.0725 67.4759C98.6541 67.1158 98.3522 66.5781 98.3127 65.9486C98.2725 65.3067 98.5142 64.7641 98.8248 64.3896L100.438 65.7272L100.592 65.8547M100.438 65.7272L98.8248 64.3895C99.2811 63.8392 99.7254 63.4585 100.073 63.1604C100.097 63.1404 100.119 63.1208 100.142 63.1016C100.491 62.8014 100.811 62.5202 101.213 62.0556C102.039 61.1024 103.302 59.2682 105.414 55.0173C107.044 50.0378 106.96 45.1986 105.403 41.4377C103.859 37.7079 100.83 34.9183 96.213 33.9568C95.0271 33.7098 94.2215 32.6107 94.3251 31.4172C94.6175 28.0484 94.6866 25.4175 94.5475 23.4058C94.4057 21.3569 94.059 20.1505 93.6764 19.4829C93.3664 18.9418 93.0662 18.7853 92.6523 18.731C92.0732 18.655 91.1211 18.7867 89.6301 19.3665L88.8705 17.4132L89.6301 19.3665C88.2964 19.885 86.8157 19.1152 86.4578 17.7457L86.4578 17.7456C84.6968 11.0049 80.6967 7.84804 76.4637 7.1967C72.1052 6.52605 66.9632 8.42561 62.9232 12.9321C61.7369 14.2554 59.554 13.734 59.0922 12.0194C58.0452 8.13251 54.3681 5.19155 51.2274 4.39361C49.6392 3.99009 48.7124 4.25686 48.3318 4.56382C48.0784 4.76822 47.5092 5.46123 47.9736 7.6518L47.9736 7.65183C48.1969 8.70562 47.6459 9.57006 47.0189 9.98909C46.3798 10.4161 45.2971 10.6091 44.3852 9.88862L45.6844 8.24422L44.3852 9.8886C43.0718 8.85088 41.8926 8.47579 40.8645 8.49673C39.8348 8.5177 38.6929 8.9413 37.4657 9.98766C34.9351 12.1454 32.3884 16.6759 30.5301 23.8222C30.1747 25.1888 28.6737 25.9929 27.3073 25.4179L28.1202 23.4863L27.3073 25.4179C21.0262 22.7747 16.3365 19.8725 12.0987 16.3474C14.8267 22.2067 18.2936 26.9457 22.9674 32.0054L21.428 33.4274L22.9674 32.0054C24.3146 33.4639 23.3734 35.6426 21.6436 35.9629C15.8632 37.0331 13.1283 39.6913 12.1356 41.9268C11.0756 44.3141 11.8889 46.0737 12.7706 46.6172C13.4439 47.0322 13.6989 47.6639 13.7848 48.0621C13.8721 48.4663 13.8408 48.8377 13.7723 49.1288C13.7041 49.4178 13.5644 49.7748 13.2913 50.1073C13.0164 50.4419 12.4708 50.8966 11.6518 50.9297C11.3364 50.9424 11.0789 50.9664 10.8712 50.9955C11.0625 51.2763 11.3049 51.5798 11.5695 51.9031C11.5832 51.9198 11.5977 51.9375 11.613 51.9561C11.7642 52.1402 11.9867 52.4113 12.1371 52.6412C12.1863 52.7163 12.2564 52.8294 12.3229 52.9671C12.3764 53.0781 12.5009 53.3507 12.5409 53.7159C12.584 54.1089 12.5444 54.8893 11.8816 55.5123C11.7164 55.6676 11.5444 55.7817 11.3774 55.8654C5.55127 59.825 3.02331 66.8606 4.71095 72.2563C5.54502 74.9229 7.43139 77.3105 10.6868 78.8579C13.9833 80.4247 18.7958 81.1764 25.4636 80.2561C26.7626 80.0768 27.6332 80.9305 27.9648 81.6125C28.2968 82.2951 28.432 83.5144 27.4772 84.4255C26.7884 85.0828 26.6116 85.6094 26.5867 85.938C26.5624 86.2573 26.6589 86.6734 27.0797 87.1738C27.9813 88.246 30.1795 89.4032 33.7003 89.6117C34.7158 89.6718 35.5893 90.3001 35.9918 91.1936L34.0811 92.0544L35.9918 91.1936C36.375 92.0443 36.8094 92.5587 37.2645 92.8851C37.7174 93.2099 38.3265 93.4459 39.217 93.5236C41.1077 93.6884 43.9052 93.1175 48.0566 91.6588C49.9219 91.0033 51.4488 92.8206 50.933 94.4518L48.9349 93.8199L50.933 94.4518C50.5236 95.7465 50.6772 96.2298 50.7061 96.3013C50.714 96.3062 50.727 96.3134 50.7465 96.3222C50.8415 96.3652 51.0673 96.4334 51.4905 96.4376C52.3596 96.4463 53.6801 96.1836 55.451 95.512C57.1917 94.8518 59.2434 93.8444 61.5342 92.4888L61.5343 92.4888C63.4186 91.3738 65.3606 93.2599 64.8211 95.0641L62.8132 94.4637L64.8211 95.0641C64.512 96.0974 64.5738 96.5325 64.6019 96.6515C64.6973 96.7016 64.9741 96.8023 65.6289 96.8084C66.6916 96.8181 68.2523 96.5609 70.379 95.9759C72.4761 95.399 74.996 94.5404 77.9317 93.4337C78.9494 93.05 80.0591 92.9431 81.1375 93.1343C89.9212 94.6912 96.9138 95.5836 105.089 96.061C101.107 93.8568 97.7301 91.0348 94.4487 86.907C93.7558 86.0354 93.7393 84.8431 94.3148 83.9623L96.0692 85.1085L94.3148 83.9623C95.7185 81.8137 96.7616 80.1193 97.4711 78.798C97.8444 78.1028 98.0938 77.5666 98.255 77.1626M64.5595 96.6237C64.5598 96.6234 64.5637 96.6261 64.5702 96.6327C64.5624 96.6273 64.5592 96.624 64.5595 96.6237ZM10.5223 50.3445C10.5237 50.3452 10.5288 50.3596 10.5331 50.3853C10.5231 50.3565 10.5209 50.3437 10.5223 50.3445ZM10.1839 51.1657C10.1817 51.167 10.1806 51.1677 10.1805 51.1677C10.1805 51.1676 10.1816 51.167 10.1839 51.1657Z" fill="#E9007F"/>
<path fill-rule="evenodd" clip-rule="evenodd" d="M73.4464 50.0978C74.2122 49.2299 75.5365 49.1472 76.4044 49.9129C79.3874 52.545 83.1826 53.042 86.2559 50.4986C87.1475 49.7606 88.4686 49.8853 89.2065 50.7769C89.9445 51.6686 89.8198 52.9897 88.9282 53.7276C83.8981 57.8904 77.7736 56.7108 73.6313 53.0558C72.7634 52.29 72.6806 50.9657 73.4464 50.0978Z" fill="white"/>
<path fill-rule="evenodd" clip-rule="evenodd" d="M46.6654 52.2464C47.5568 52.9847 47.6808 54.3059 46.9425 55.1972C44.3387 58.3406 41.757 60.8116 38.9368 62.085C35.9603 63.429 32.9069 63.3577 29.6903 61.8311C28.6447 61.3349 28.1993 60.0849 28.6956 59.0393C29.1918 57.9937 30.4417 57.5483 31.4874 58.0445C33.6864 59.0882 35.4494 59.0608 37.212 58.265C39.131 57.3985 41.2113 55.5456 43.7146 52.5235C44.453 51.6321 45.7741 51.5081 46.6654 52.2464Z" fill="white"/>
<path fill-rule="evenodd" clip-rule="evenodd" d="M78.1328 38.7774C77.2353 37.9044 75.8696 37.2956 73.8635 37.4743C71.8587 37.6528 70.5648 38.5023 69.7711 39.5615C68.9478 40.6603 68.5678 42.1173 68.683 43.5944C68.7983 45.073 69.3988 46.4342 70.3566 47.3597C71.2757 48.2478 72.6302 48.8432 74.547 48.6678C78.1884 48.3344 79.9066 45.4708 79.73 42.5103C79.6419 41.0331 79.0695 39.6883 78.1328 38.7774ZM83.7745 42.2691C84.052 46.9229 81.1946 52.1278 74.9164 52.7026C71.8734 52.9812 69.3421 52.0136 67.5412 50.2733C65.7789 48.5705 64.8252 46.2379 64.6436 43.9094C64.4619 41.5793 65.0424 39.1156 66.5287 37.132C68.0447 35.1087 70.4095 33.7141 73.5042 33.4385C76.5976 33.1631 79.1526 34.1173 80.9576 35.8728C82.7236 37.5902 83.6356 39.9391 83.7745 42.2691Z" fill="white"/>
<path fill-rule="evenodd" clip-rule="evenodd" d="M44.4551 43.5281C43.5575 42.6552 42.1919 42.0464 40.1858 42.225C38.1809 42.4035 36.887 43.2531 36.0934 44.3122C35.2701 45.411 34.8901 46.8681 35.0053 48.3451C35.1206 49.8238 35.7211 51.1849 36.6789 52.1104C37.598 52.9985 38.9525 53.594 40.8693 53.4185C44.5106 53.0851 46.2288 50.2216 46.0523 47.261C45.9642 45.7838 45.3917 44.439 44.4551 43.5281ZM50.0968 47.0198C50.3743 51.6737 47.5169 56.8786 41.2387 57.4533C38.1956 57.7319 35.6644 56.7643 33.8634 55.0241C32.1012 53.3212 31.1474 50.9887 30.9658 48.6601C30.7841 46.33 31.3646 43.8663 32.851 41.8827C34.3669 39.8595 36.7318 38.4648 39.8264 38.1893C42.9199 37.9138 45.4749 38.8681 47.2799 40.6235C49.0458 42.341 49.9578 44.6899 50.0968 47.0198Z" fill="white"/>
<path fill-rule="evenodd" clip-rule="evenodd" d="M77.7552 52.7661L75.6479 56.1778C73.8381 59.108 71.5234 60.3916 68.8822 61.0216C67.6254 61.3214 66.2933 61.4749 64.9685 61.6087C64.721 61.6337 64.4731 61.658 64.2243 61.6825C63.1102 61.792 61.9774 61.9033 60.7667 62.0822C59.1356 62.3232 57.713 62.6268 56.3824 62.9108C56.271 62.9345 56.1602 62.9582 56.0501 62.9816C54.6575 63.278 53.2902 63.5608 51.9883 63.6508C50.6508 63.7433 49.3098 63.6403 47.945 63.1297C46.5856 62.621 45.3271 61.7546 44.0771 60.4993L41.4104 57.821L77.7552 52.7661Z" fill="white"/>
<path fill-rule="evenodd" clip-rule="evenodd" d="M76.1216 49.0118C77.1785 49.2355 77.8539 50.2736 77.6302 51.3304C77.2587 53.0859 76.6183 54.7128 75.7631 56.1937L83.4713 63.3208C84.2644 64.0542 84.3129 65.2917 83.5795 66.0849C82.8462 66.8781 81.6087 66.9265 80.8155 66.1932L73.4215 59.3566C72.3627 60.4985 71.1605 61.5048 69.8571 62.3674L70.9499 65.9469L74.2316 64.7972C75.2511 64.44 76.3671 64.9769 76.7243 65.9964C77.0815 67.0159 76.5445 68.1319 75.525 68.4891L72.0931 69.6915L73.6754 74.8739C73.9908 75.9071 73.409 77.0004 72.3758 77.3158C71.3426 77.6312 70.2494 77.0494 69.9339 76.0162L66.3417 64.2503C64.2408 65.1418 61.983 65.7249 59.6791 65.9691L59.7207 68.5697L63.3227 68.2572C64.3989 68.1638 65.347 68.9605 65.4404 70.0367C65.5338 71.113 64.737 72.0611 63.6608 72.1545L59.7833 72.4909L59.859 77.2301C59.8762 78.3102 59.0146 79.1998 57.9345 79.2171C56.8544 79.2343 55.9648 78.3727 55.9475 77.2926L55.768 66.054C54.6398 65.9827 53.5124 65.8271 52.3988 65.5825C51.0996 69.1588 49.5234 71.6589 47.7963 73.2407C45.7564 75.1091 43.4161 75.7441 41.306 75.0856C37.1449 73.787 35.7432 68.2696 39.3009 64.5271C40.0452 63.7441 41.2833 63.7128 42.0662 64.4571C42.8492 65.2013 42.8805 66.4394 42.1362 67.2224C40.315 69.1382 41.4282 71.0257 42.4714 71.3512C42.9634 71.5048 43.8976 71.5067 45.1541 70.3559C46.2568 69.3459 47.5225 67.4996 48.6703 64.3879C45.2222 62.8916 42.3356 60.4127 39.8781 56.8578C39.2638 55.9692 39.4861 54.7509 40.3747 54.1366C41.2633 53.5223 42.4817 53.7446 43.096 54.6332C45.5598 58.1973 48.3639 60.2944 51.7172 61.3553C53.6285 61.96 55.6408 62.2279 57.6497 62.1828C60.8142 62.1117 63.9343 61.2644 66.589 59.7804C68.6202 58.645 70.3571 57.1496 71.6423 55.3691C72.6758 53.9374 73.4234 52.3138 73.803 50.5204C74.0267 49.4636 75.0648 48.7881 76.1216 49.0118Z" fill="#E9007F"/>
</svg>
