<svg width="847" height="723" viewBox="0 0 847 723" fill="none" xmlns="http://www.w3.org/2000/svg">
<path d="M154.353 239.266C105.909 186.822 74.6386 138.418 51.6626 65.0908C51.3468 64.0829 52.6085 63.3347 53.3387 64.098C96.256 108.955 136.537 140.457 202.253 168.112C203.377 168.585 204.678 167.921 204.985 166.741C232.146 62.2941 281.967 22.67 327.97 59.0165C328.733 59.619 329.882 58.8374 329.681 57.8866C314.029 -15.9527 420.172 14.3916 438.421 82.1363C438.631 82.9186 439.648 83.1609 440.188 82.5576C503.368 12.0842 606.611 17.1682 634.321 123.232C634.629 124.411 635.941 125.086 637.077 124.644C683.036 106.773 699.559 128.287 691.062 226.175C690.973 227.197 691.686 228.161 692.69 228.37C768.815 244.225 795.2 322.114 769.401 399.511C738.202 462.506 730.073 458.152 719.872 470.453C719.137 471.34 720.227 472.269 721.108 471.526C781.697 420.474 768.781 472.764 695.852 536.456C695.074 537.135 695.686 538.46 696.702 538.278C731.71 532.013 729.042 547.279 688.602 609.175C687.898 610.253 687.943 611.705 688.745 612.713C727.395 661.332 767.607 683.107 830.79 703.417C831.889 703.77 831.602 705.411 830.448 705.39C732.426 703.566 668.504 697.234 579.11 681.389C574.072 680.497 568.861 680.994 564.073 682.798C479.234 714.783 437.448 720.017 450.57 676.135C450.836 675.245 449.854 674.436 449.055 674.909C381.364 714.965 336.879 716.924 351.235 671.527C351.488 670.729 350.712 669.933 349.922 670.211C290.149 691.214 259.241 690.684 244.918 658.891C244.274 657.461 242.872 656.473 241.306 656.381C186.433 653.131 159.566 619.895 187.296 593.434C188.826 591.974 187.384 589.014 185.289 589.303C-13.2897 616.711 -19.2498 449.118 75.4008 386.511C80.6469 386.511 35.8539 351.483 83.7752 349.551C84.9427 349.504 85.5111 347.055 84.5165 346.442C55.1836 328.361 63.2773 259.307 153.165 242.664C154.735 242.374 155.437 240.439 154.353 239.266Z" fill="black" stroke="#29627D" stroke-width="30"/>
<path d="M537.901 368.511C563.401 391.011 598.901 397.011 627.901 373.011" stroke="white" stroke-width="30" stroke-linecap="round"/>
<path d="M219.901 429.011C258.663 447.407 288.846 429.641 325.401 385.511" stroke="white" stroke-width="30" stroke-linecap="round"/>
<path d="M528.338 253.79C601.338 247.29 606.838 356.29 535.838 362.79C464.838 369.29 455.338 260.29 528.338 253.79Z" stroke="white" stroke-width="29"/>
<path d="M287.338 287.79C360.338 281.29 365.838 390.29 294.838 396.79C223.838 403.29 214.338 294.29 287.338 287.79Z" stroke="white" stroke-width="29"/>
<path d="M530.901 395.011L325.984 423.511C357.713 455.377 381.286 438.783 433.901 431.011C477.901 424.511 509.373 429.864 530.901 395.011Z" stroke="white" stroke-width="27" stroke-linecap="round"/>
<path d="M297.901 399.011C317.056 426.719 339.55 443.858 366.901 452.511M542.901 364.511C539.759 379.356 533.569 392.766 525.09 404.511C514.568 419.088 500.521 431.1 484.401 440.111M366.901 452.511C328.401 577.511 253.901 512.011 292.401 471.511M366.901 452.511C382.135 457.331 398.079 459.438 413.901 459.082M413.901 459.082L414.651 506.047M413.901 459.082C438.779 458.523 463.356 451.875 484.401 440.111M415.401 553.011L414.651 506.047M414.651 506.047L455.401 502.511M484.401 440.111L499.651 490.061M514.901 540.011L499.651 490.061M499.651 490.061L536.901 477.011" stroke="#29627D" stroke-width="28" stroke-linecap="round"/>
<path d="M526.5 408L608.527 482.746C609.847 483.949 611.919 483.739 612.971 482.296L646 437" stroke="#C01A1C" stroke-width="28" stroke-linecap="round"/>
<rect x="307" y="164.379" width="174" height="80" rx="9" transform="rotate(-11.0598 307 164.379)" fill="#C01A1C"/>
<path d="M370.045 207.815L371.664 216.096L349.091 220.508L347.472 212.227L370.045 207.815ZM344.196 175.104L352.925 219.759L342.16 221.863L333.431 177.208L344.196 175.104ZM379.228 168.256L387.957 212.911L377.222 215.009L368.494 170.355L379.228 168.256ZM410.689 197.546L413.309 161.595L425.362 159.239L419.032 206.837L411.242 208.36L410.689 197.546ZM395.582 165.06L411.548 197.378L415.168 207.592L407.286 209.133L383.591 167.404L395.582 165.06ZM466.799 188.903L468.418 197.184L444.618 201.836L442.999 193.555L466.799 188.903ZM439.723 156.432L448.452 201.086L437.687 203.191L428.958 158.536L439.723 156.432ZM460.087 170.855L461.652 178.86L440.919 182.913L439.355 174.908L460.087 170.855ZM459.781 152.511L461.406 160.822L437.514 165.492L435.89 157.181L459.781 152.511Z" fill="white"/>
</svg>
